<svg width="88" height="88" viewBox="0 0 88 88" fill="none" xmlns="http://www.w3.org/2000/svg">
<path d="M44 88C68.3005 88 88 68.3005 88 44C88 19.6995 68.3005 0 44 0C19.6995 0 0 19.6995 0 44C0 68.3005 19.6995 88 44 88Z" fill="#F3603C"/>
<path d="M29.806 46.004V42.564C29.806 41.907 29.96 41.389 30.267 41.009C30.575 40.63 30.96 40.441 31.422 40.441C32.329 40.441 32.782 41.098 32.782 42.412V46.004H34.37V42.012C34.37 41.006 34.16 40.253 33.739 39.755C33.319 39.256 32.717 39.007 31.935 39.007C31.422 39.007 30.953 39.105 30.527 39.3C30.102 39.495 29.744 39.779 29.452 40.151H29.424C29.013 39.388 28.324 39.007 27.357 39.007C26.95 39.007 26.559 39.097 26.182 39.279C25.7993 39.465 25.4618 39.7322 25.193 40.062H25.173V39.11H23.584V45.997H25.172V42.564C25.172 41.907 25.329 41.389 25.641 41.009C25.953 40.63 26.351 40.441 26.837 40.441C27.757 40.441 28.217 41.098 28.217 42.412V46.004H29.806ZM38.668 46.107C39.612 46.107 40.347 45.762 40.874 45.073H40.895V45.997H42.414V39.11H40.826V39.938H40.798C40.271 39.318 39.556 39.007 38.655 39.007C38.2097 39.004 37.7684 39.0916 37.358 39.2646C36.9477 39.4375 36.5768 39.6922 36.268 40.013C35.972 40.326 35.738 40.705 35.568 41.151C35.3945 41.609 35.3074 42.0952 35.311 42.585C35.311 43.108 35.397 43.591 35.568 44.032C35.738 44.473 35.972 44.846 36.268 45.149C36.564 45.452 36.919 45.688 37.333 45.855C37.7574 46.0249 38.2108 46.1105 38.668 46.107ZM38.918 44.673C38.331 44.673 37.852 44.479 37.482 44.091C37.112 43.702 36.927 43.203 36.927 42.591C36.927 41.943 37.118 41.423 37.5 41.031C37.881 40.637 38.356 40.441 38.925 40.441C39.489 40.441 39.957 40.646 40.33 41.058C40.702 41.469 40.888 41.98 40.888 42.591C40.888 43.203 40.698 43.702 40.316 44.091C40.1359 44.2794 39.9186 44.4284 39.678 44.5286C39.4374 44.6287 39.1786 44.6779 38.918 44.673ZM50.305 46.003V41.943C50.305 40.946 50.08 40.207 49.629 39.727C49.179 39.247 48.555 39.007 47.759 39.007C47.307 39.007 46.879 39.097 46.476 39.276C46.0752 39.4543 45.7197 39.7205 45.436 40.055H45.416V39.11H43.826V45.997H45.416V42.537C45.416 41.875 45.578 41.36 45.904 40.992C46.23 40.625 46.666 40.441 47.212 40.441C47.462 40.441 47.675 40.473 47.853 40.537C48.031 40.602 48.187 40.707 48.322 40.851C48.456 40.996 48.555 41.192 48.62 41.441C48.685 41.688 48.717 41.991 48.717 42.351V46.004H50.305V46.003ZM54.597 46.107C55.54 46.107 56.275 45.762 56.802 45.073H56.823V45.997H58.343V39.11H56.753V39.938H56.726C56.2 39.318 55.485 39.006 54.583 39.006C54.1378 39.0031 53.6968 39.0908 53.2866 39.2638C52.8764 39.4367 52.5057 39.6913 52.197 40.012C51.901 40.325 51.667 40.704 51.497 41.15C51.3232 41.608 51.2357 42.0942 51.239 42.584C51.239 43.107 51.325 43.59 51.496 44.031C51.667 44.472 51.901 44.845 52.196 45.148C52.493 45.451 52.848 45.687 53.261 45.854C53.6857 46.024 54.1395 46.1096 54.597 46.106V46.107ZM54.847 44.673C54.259 44.673 53.781 44.479 53.411 44.091C53.041 43.702 52.856 43.203 52.856 42.591C52.856 41.943 53.046 41.423 53.428 41.031C53.809 40.637 54.285 40.441 54.853 40.441C55.417 40.441 55.886 40.646 56.258 41.058C56.63 41.469 56.816 41.98 56.816 42.591C56.816 43.203 56.626 43.702 56.244 44.091C56.0639 44.2794 55.8466 44.4284 55.606 44.5286C55.3654 44.6287 55.1066 44.6779 54.846 44.673H54.847ZM62.856 48.892C63.36 48.892 63.811 48.833 64.208 48.716C64.606 48.599 64.94 48.436 65.211 48.226C65.481 48.018 65.705 47.761 65.883 47.458C66.061 47.155 66.19 46.824 66.268 46.466C66.347 46.107 66.386 45.714 66.386 45.286V39.11H64.798V39.834H64.77C64.4849 39.564 64.1491 39.3533 63.782 39.214C63.4111 39.0717 63.0172 38.9991 62.62 39C61.986 39 61.417 39.15 60.913 39.448C60.412 39.7438 60.0047 40.175 59.738 40.692C59.458 41.223 59.318 41.819 59.318 42.482C59.318 43.152 59.465 43.747 59.758 44.267C60.052 44.786 60.456 45.185 60.968 45.463C61.5019 45.7461 62.0987 45.8896 62.703 45.88C63.563 45.88 64.263 45.6 64.805 45.039H64.833V45.769C64.833 46.256 64.653 46.661 64.291 46.983C63.931 47.304 63.422 47.465 62.765 47.465C62.317 47.465 61.923 47.41 61.583 47.3C61.1771 47.1611 60.7837 46.9881 60.407 46.783L60.033 48.175C60.421 48.405 60.858 48.582 61.343 48.705C61.829 48.83 62.333 48.892 62.856 48.892ZM62.911 44.425C62.338 44.425 61.865 44.245 61.493 43.884C61.12 43.524 60.934 43.04 60.934 42.433C60.934 41.849 61.117 41.373 61.482 41.006C61.848 40.638 62.324 40.455 62.912 40.455C63.471 40.455 63.937 40.636 64.309 40.999C64.681 41.362 64.867 41.833 64.867 42.412C64.867 42.996 64.686 43.477 64.323 43.856C63.96 44.236 63.489 44.426 62.911 44.426V44.425ZM70.927 46.107C71.575 46.107 72.145 45.99 72.637 45.756C73.1091 45.5374 73.5234 45.2114 73.847 44.804L72.737 43.86C72.303 44.402 71.727 44.673 71.011 44.673C70.501 44.673 70.071 44.533 69.717 44.253C69.363 43.973 69.135 43.589 69.034 43.102H74.084C74.111 42.936 74.125 42.727 74.125 42.474C74.125 41.808 73.989 41.213 73.715 40.689C73.4498 40.1728 73.0411 39.7443 72.538 39.455C72.023 39.156 71.43 39.007 70.76 39.007C70.284 39.007 69.837 39.093 69.421 39.265C69.0172 39.429 68.6513 39.674 68.346 39.985C68.046 40.294 67.81 40.668 67.638 41.109C67.4637 41.5692 67.3768 42.0579 67.382 42.55C67.382 43.253 67.537 43.877 67.847 44.422C68.157 44.966 68.579 45.383 69.116 45.672C69.652 45.962 70.256 46.107 70.926 46.107H70.927ZM72.53 41.827H69.06C69.171 41.385 69.386 41.044 69.706 40.803C70.025 40.561 70.404 40.441 70.843 40.441C71.287 40.441 71.653 40.565 71.943 40.813C72.232 41.061 72.427 41.399 72.529 41.826L72.53 41.827Z" fill="white"/>
<path fill-rule="evenodd" clip-rule="evenodd" d="M14.17 43.286C14.816 43.286 15.34 43.819 15.34 44.476C15.3414 44.631 15.3121 44.7847 15.2541 44.9283C15.196 45.072 15.1102 45.2028 15.0015 45.3133C14.8929 45.4238 14.7635 45.5119 14.6209 45.5724C14.4782 45.6329 14.325 45.6647 14.17 45.666C13.8573 45.6634 13.5583 45.5366 13.3389 45.3137C13.1195 45.0907 12.9976 44.7898 13 44.477C13 43.82 13.524 43.287 14.17 43.287V43.286ZM14.17 39C14.816 39 15.34 39.533 15.34 40.19C15.3415 40.345 15.3124 40.4989 15.2543 40.6426C15.1963 40.7864 15.1105 40.9174 15.0019 41.028C14.8932 41.1386 14.7638 41.2267 14.6211 41.2873C14.4784 41.3478 14.3251 41.3797 14.17 41.381C14.0151 41.3797 13.8619 41.3479 13.7192 41.2874C13.5766 41.2269 13.4472 41.1388 13.3386 41.0283C13.2299 40.9178 13.1441 40.787 13.086 40.6433C13.0279 40.4997 12.9987 40.346 13 40.191C13 39.532 13.524 39 14.17 39ZM18.382 39C19.028 39 19.552 39.533 19.552 40.19C19.5535 40.345 19.5244 40.4989 19.4663 40.6426C19.4083 40.7864 19.3225 40.9174 19.2139 41.028C19.1052 41.1386 18.9758 41.2267 18.8331 41.2873C18.6904 41.3478 18.5371 41.3797 18.382 41.381C18.2271 41.3797 18.0739 41.3479 17.9312 41.2874C17.7886 41.2269 17.6592 41.1388 17.5506 41.0283C17.4419 40.9178 17.3561 40.787 17.298 40.6433C17.2399 40.4997 17.2107 40.346 17.212 40.191C17.212 39.532 17.736 39 18.382 39Z" fill="white"/>
<path opacity="0.5" d="M18.3819 45.714C19.0281 45.714 19.5519 45.1812 19.5519 44.524C19.5519 43.8668 19.0281 43.334 18.3819 43.334C17.7357 43.334 17.2119 43.8668 17.2119 44.524C17.2119 45.1812 17.7357 45.714 18.3819 45.714Z" fill="white"/>
</svg>
